<svg width="16" height="16" viewBox="0 0 16 16" fill="none" xmlns="http://www.w3.org/2000/svg">
<rect width="16" height="16" fill="white"/>
<g clip-path="url(#clip0_815_2350)">
<path d="M11.9943 8.15875V7.8436C13.6594 7.63428 14.9906 6.29605 14.9906 4.16757C14.9929 1.71689 13.3701 0 10.3739 0H3.99808V1.99912H10.1293C11.9026 1.99912 12.9774 2.97045 12.9797 4.55329C12.9821 6.13612 11.8038 7.12392 10.1575 7.12392H3.99808V1.99912H1.99902V13.9938H3.99808V8.84316H10.1552C11.8015 8.84316 12.9774 9.83096 12.9774 11.4114C12.9774 12.9919 11.9026 13.9985 10.1317 13.9985L3.99808 14.0009V15.9929H10.3833C13.3819 15.9929 15.0023 14.2337 15 11.783C14.9976 9.65692 13.6641 8.36337 11.9943 8.15875Z" fill="#FFC067"/>
<path d="M1.99906 0H0V1.99912H1.99906V0Z" fill="#FFC067"/>
<path d="M1.99906 14.001H0V16.0001H1.99906V14.001Z" fill="#FFC067"/>
</g>
<defs>
<clipPath id="clip0_815_2350">
<rect width="15" height="16" fill="white"/>
</clipPath>
</defs>
</svg>
