<svg width="494" height="550" viewBox="0 0 494 550" fill="none" xmlns="http://www.w3.org/2000/svg">
<path d="M447.373 405.014C447.335 331.91 401.505 287.49 344.256 280.385V269.576C401.467 262.358 447.22 216.372 447.182 143.267C447.144 115.194 440.919 89.9861 428.85 68.75H493.28V4.67352e-05H424.535V61.6459C399.252 23.3368 353.154 -0.0381477 288.343 4.67352e-05L69.2755 0.191019V68.75L280.055 68.5591C340.933 68.5209 377.941 101.941 377.979 156.292C378.017 210.642 337.458 244.674 280.896 244.712L69.2372 244.865V68.75H0.492188V244.903V304.028V481.25H69.2372V303.99L280.934 303.837C337.496 303.799 378.094 337.715 378.132 392.104C378.17 446.455 341.239 481.021 280.323 481.059L69.2755 481.25V550L288.763 549.809C353.269 549.771 399.214 526.014 424.535 487.59V550H493.28V481.25H428.43C440.957 459.556 447.411 433.66 447.373 405.014Z" fill="#661F08"/>
</svg>
