<svg width="1502" height="550" viewBox="0 0 1502 550" fill="none" xmlns="http://www.w3.org/2000/svg">
<path d="M515.586 405.014C515.548 331.91 469.718 287.49 412.468 280.385V269.576C469.68 262.358 515.433 216.372 515.395 143.267C515.357 115.194 509.132 89.9861 497.063 68.75H561.493V4.67352e-05H492.747V61.6459C467.465 23.3368 421.367 -0.0381477 356.556 4.67352e-05L137.488 0.191019V68.75L348.268 68.5591C409.146 68.5209 446.154 101.941 446.192 156.292C446.23 210.642 405.67 244.674 349.108 244.712L137.488 244.865V68.75H68.7432V481.25H137.488V303.99L349.185 303.837C405.747 303.799 446.345 337.715 446.383 392.104C446.421 446.455 409.49 481.021 348.574 481.059L137.488 481.25V550L356.976 549.809C421.482 549.771 467.426 526.014 492.747 487.59V550H561.493V481.25H496.643C509.17 459.556 515.624 433.66 515.586 405.014Z" fill="#661F08"/>
<path d="M68.7451 0H0V68.75H68.7451V0Z" fill="#661F08"/>
<path d="M68.7451 481.25H0V550H68.7451V481.25Z" fill="#661F08"/>
<path d="M1008.37 405.014C1008.34 331.91 962.505 287.49 905.256 280.385V269.576C962.467 262.358 1008.22 216.372 1008.18 143.267C1008.14 115.194 1001.92 89.9861 989.85 68.75H1054.28V4.67352e-05H985.535V61.6459C960.252 23.3368 914.154 -0.0381477 849.343 4.67352e-05L630.275 0.191019V68.75L841.055 68.5591C901.933 68.5209 938.941 101.941 938.979 156.292C939.017 210.642 898.458 244.674 841.896 244.712L630.237 244.865V68.75H561.492V244.903V304.028V481.25H630.237V303.99L841.934 303.837C898.496 303.799 939.094 337.715 939.132 392.104C939.17 446.455 902.239 481.021 841.323 481.059L630.275 481.25V550L849.763 549.809C914.269 549.771 960.214 526.014 985.535 487.59V550H1054.28V481.25H989.43C1001.96 459.556 1008.41 433.66 1008.37 405.014Z" fill="#661F08"/>
<path d="M1398.04 280.424V269.615C1455.25 262.396 1501.01 216.41 1500.97 143.306C1500.89 59.0105 1445.17 -0.0763149 1342.13 7.39816e-05L1123.06 0.191046V68.7501L1333.84 68.5591C1394.72 68.5209 1431.73 101.941 1431.77 156.292C1431.81 210.642 1391.25 244.674 1334.68 244.712L1123.03 244.865V68.7501H1054.28V244.903V304.028V481.25H1123.03V303.99L1334.72 303.837C1391.28 303.799 1431.88 337.715 1431.92 392.104C1431.96 446.455 1395.03 481.021 1334.11 481.059L1123.06 481.25V550L1342.55 549.809C1445.55 549.733 1501.24 489.271 1501.16 405.014C1501.12 331.91 1455.29 287.528 1398.04 280.424Z" fill="#661F08"/>
</svg>
