<svg width="562" height="550" viewBox="0 0 562 550" fill="none" xmlns="http://www.w3.org/2000/svg">
<path d="M515.586 405.014C515.548 331.91 469.718 287.49 412.468 280.385V269.576C469.68 262.358 515.433 216.372 515.395 143.267C515.357 115.194 509.132 89.9861 497.063 68.75H561.493V4.67352e-05H492.747V61.6459C467.465 23.3368 421.367 -0.0381477 356.556 4.67352e-05L137.488 0.191019V68.75L348.268 68.5591C409.146 68.5209 446.154 101.941 446.192 156.292C446.23 210.642 405.67 244.674 349.108 244.712L137.488 244.865V68.75H68.7432V481.25H137.488V303.99L349.185 303.837C405.747 303.799 446.345 337.715 446.383 392.104C446.421 446.455 409.49 481.021 348.574 481.059L137.488 481.25V550L356.976 549.809C421.482 549.771 467.426 526.014 492.747 487.59V550H561.493V481.25H496.643C509.17 459.556 515.624 433.66 515.586 405.014Z" fill="#661F08"/>
<path d="M68.7451 0H0V68.75H68.7451V0Z" fill="#661F08"/>
<path d="M68.7451 481.25H0V550H68.7451V481.25Z" fill="#661F08"/>
</svg>
