<svg width="448" height="550" viewBox="0 0 448 550" fill="none" xmlns="http://www.w3.org/2000/svg">
<path d="M344.044 280.424V269.615C401.255 262.396 447.009 216.41 446.97 143.306C446.894 59.0105 391.172 -0.0763149 288.131 7.39816e-05L69.0636 0.191046V68.7501L279.844 68.5591C340.721 68.5209 377.729 101.941 377.767 156.292C377.805 210.642 337.246 244.674 280.684 244.712L69.0253 244.865V68.7501H0.280273V244.903V304.028V481.25H69.0253V303.99L280.722 303.837C337.284 303.799 377.882 337.715 377.92 392.104C377.958 446.455 341.027 481.021 280.111 481.059L69.0636 481.25V550L288.551 549.809C391.554 549.733 447.238 489.271 447.161 405.014C447.123 331.91 401.293 287.528 344.044 280.424Z" fill="#661F08"/>
</svg>
