<svg width="16" height="16" viewBox="0 0 16 16" fill="none" xmlns="http://www.w3.org/2000/svg">
<rect width="16" height="16" fill="#661F08"/>
<path d="M5.49533 9.38617C5.49492 8.60699 5.00645 8.13354 4.39626 8.05782V7.94261C5.00604 7.86567 5.4937 7.37553 5.4933 6.59635C5.49289 6.29713 5.42654 6.02845 5.2979 5.80211H5.98462V5.06934H5.25191V5.72639C4.98243 5.31807 4.49111 5.06893 3.80032 5.06934L1.46541 5.07137V5.80211L3.71199 5.80007C4.36085 5.79966 4.75529 6.15587 4.7557 6.73517C4.7561 7.31446 4.3238 7.67719 3.72094 7.67759L1.46541 7.67922V5.80211H0.732693V10.1987H1.46541V8.3094L3.72176 8.30778C4.32462 8.30737 4.75733 8.66887 4.75773 9.24857C4.75814 9.82787 4.36451 10.1963 3.71524 10.1967L1.46541 10.1987V10.9315L3.8048 10.9295C4.49233 10.9291 4.98202 10.6758 5.25191 10.2663V10.9315H5.98462V10.1987H5.29343C5.42694 9.9675 5.49574 9.69149 5.49533 9.38617Z" fill="#FFC572"/>
<path d="M0.732713 5.06934H0V5.80211H0.732713V5.06934Z" fill="#FFC572"/>
<path d="M0.732713 10.1987H0V10.9315H0.732713V10.1987Z" fill="#FFC572"/>
<path d="M10.7477 9.38617C10.7473 8.60699 10.2588 8.13354 9.64859 8.05782V7.94261C10.2584 7.86567 10.746 7.37553 10.7456 6.59635C10.7452 6.29713 10.6789 6.02845 10.5502 5.80211H11.237V5.06934H10.5042V5.72639C10.2348 5.31807 9.74344 5.06893 9.05265 5.06934L6.71774 5.07137V5.80211L8.96432 5.80007C9.61318 5.79966 10.0076 6.15587 10.008 6.73517C10.0084 7.31446 9.57614 7.67719 8.97328 7.67759L6.71733 7.67922V5.80211H5.98462V7.67963V8.30981V10.1987H6.71733V8.3094L8.97368 8.30778C9.57654 8.30737 10.0093 8.66887 10.0097 9.24857C10.0101 9.82787 9.61644 10.1963 8.96717 10.1967L6.71774 10.1987V10.9315L9.05713 10.9295C9.74466 10.9291 10.2344 10.6758 10.5042 10.2663V10.9315H11.237V10.1987H10.5458C10.6793 9.9675 10.7481 9.69149 10.7477 9.38617Z" fill="#FFC572"/>
<path d="M14.9009 8.05823V7.94302C15.5107 7.86608 15.9984 7.37594 15.9979 6.59676C15.9971 5.6983 15.4032 5.06852 14.305 5.06934L11.9701 5.07137V5.80211L14.2166 5.80007C14.8655 5.79966 15.2599 6.15587 15.2603 6.73517C15.2608 7.31446 14.8285 7.67719 14.2256 7.67759L11.9697 7.67922V5.80211H11.2369V7.67963V8.30981V10.1987H11.9697V8.3094L14.226 8.30778C14.8289 8.30737 15.2616 8.66887 15.262 9.24857C15.2624 9.82787 14.8688 10.1963 14.2195 10.1967L11.9701 10.1987V10.9315L14.3095 10.9295C15.4073 10.9287 16.0008 10.2842 16 9.38617C15.9996 8.60699 15.5111 8.13395 14.9009 8.05823Z" fill="#FFC572"/>
</svg>
